<svg width="139" height="50" viewBox="0 0 139 50" fill="none" xmlns="http://www.w3.org/2000/svg">
<path d="M48.9322 26.6013C49.1177 27.0851 49.3819 27.5071 49.7249 27.8615C50.0678 28.216 50.4838 28.4973 50.9729 28.6998C51.4621 28.9023 52.013 29.0092 52.6202 29.0092C53.5422 29.0092 54.3124 28.8179 54.9308 28.4297C55.5493 28.0472 55.9934 27.4789 56.252 26.7307L58.5795 27.0457C58.4671 27.704 58.2422 28.2947 57.9105 28.8179C57.5732 29.3412 57.1459 29.78 56.6174 30.1344C56.089 30.4889 55.4874 30.7589 54.8071 30.9446C54.1325 31.1303 53.3848 31.2259 52.5808 31.2259C51.7769 31.2259 50.7312 31.0796 49.9329 30.7871C49.1402 30.4945 48.4543 30.0782 47.8921 29.5381C47.3243 28.998 46.8914 28.3454 46.5878 27.5915C46.2842 26.8319 46.1324 25.988 46.1324 25.0541C46.1436 24.2102 46.3067 23.4169 46.6159 22.6743C46.9251 21.9373 47.3692 21.2903 47.9371 20.7333C48.5105 20.1819 49.1908 19.7431 49.9891 19.428C50.7818 19.113 51.6813 18.9498 52.6708 18.9498C53.6603 18.9498 54.1831 19.0455 54.8634 19.2311C55.538 19.4168 56.1396 19.6868 56.6512 20.0413C57.1684 20.3957 57.59 20.8346 57.9274 21.3578C58.2647 21.881 58.4783 22.4717 58.5795 23.13L56.252 23.4451C56.0046 22.6968 55.5605 22.1342 54.9196 21.746C54.2787 21.3634 53.4691 21.1665 52.4853 21.1665C51.5014 21.1665 51.3552 21.2621 50.883 21.4534C50.4107 21.6447 50.006 21.9148 49.6743 22.2636C49.3369 22.6124 49.0783 23.0231 48.8984 23.4957C48.7185 23.9683 48.6286 24.4859 48.6286 25.0429C48.6398 25.5886 48.741 26.1062 48.9265 26.59L48.9322 26.6013Z" fill="#262262"/>
<path d="M59.4678 25.0935C59.4678 24.1708 59.6421 23.3382 59.9906 22.5843C60.3392 21.8304 60.8114 21.189 61.4074 20.6545C62.0033 20.1201 62.7004 19.7037 63.4931 19.4056C64.2858 19.1074 65.1348 18.9555 66.0287 18.9555C66.9226 18.9555 67.7659 19.1018 68.5529 19.3943C69.34 19.6869 70.0315 20.1032 70.6218 20.6433C71.2121 21.1834 71.6788 21.8304 72.0273 22.5843C72.3759 23.3382 72.5502 24.1708 72.5502 25.0935C72.5502 26.0162 72.3815 26.8488 72.0386 27.6027C71.6956 28.3566 71.229 29.0036 70.6331 29.5437C70.0371 30.0838 69.3456 30.5002 68.5529 30.7927C67.7659 31.0853 66.9226 31.2315 66.0287 31.2315C65.1348 31.2315 64.2915 31.0796 63.4931 30.7815C62.6948 30.4833 62.0033 30.0669 61.4074 29.5325C60.8114 28.998 60.3392 28.3566 59.9906 27.6027C59.6421 26.8488 59.4678 26.0162 59.4678 25.0935ZM66.0287 29.0655C66.6021 29.0655 67.1306 28.9642 67.6197 28.7673C68.1088 28.5704 68.5304 28.2891 68.8846 27.9347C69.2388 27.5802 69.5199 27.1583 69.7223 26.6744C69.9247 26.1906 70.0315 25.6617 70.0315 25.0879C70.0315 24.514 69.9303 24.0021 69.7336 23.5126C69.5368 23.0231 69.2557 22.5955 68.8959 22.2355C68.5361 21.8754 68.1088 21.5941 67.6197 21.3972C67.1306 21.2003 66.5965 21.099 66.0287 21.099C65.4608 21.099 64.9211 21.2003 64.4264 21.3972C63.9317 21.5941 63.4988 21.8754 63.1389 22.2355C62.7791 22.5955 62.498 23.0175 62.29 23.5013C62.0876 23.9852 61.9808 24.514 61.9808 25.0879C61.9808 25.6617 62.082 26.1906 62.29 26.6744C62.4924 27.1583 62.7791 27.5802 63.1389 27.9347C63.4988 28.2891 63.926 28.5648 64.4264 28.7673C64.9211 28.9642 65.4552 29.0655 66.0287 29.0655Z" fill="#262262"/>
<path d="M76.6542 19.1411V25.6111C76.6542 26.0724 76.6992 26.5056 76.7948 26.9051C76.8904 27.3102 77.0422 27.6646 77.2502 27.9797C77.4638 28.2891 77.7449 28.5366 78.1047 28.7167C78.4645 28.8967 78.9199 28.9867 79.4652 28.9867C80.0106 28.9867 80.4603 28.8967 80.8145 28.7167C81.1687 28.5366 81.4498 28.2891 81.6634 27.9797C81.8771 27.6702 82.0232 27.3102 82.1132 26.8995C82.1975 26.4888 82.2425 26.0612 82.2425 25.6111V19.1411H84.7049V25.6505C84.7049 26.4212 84.6094 27.147 84.4182 27.8221C84.2271 28.4973 83.9179 29.088 83.4962 29.5944C83.0746 30.0951 82.5349 30.4945 81.8771 30.7871C81.2193 31.0796 80.4097 31.2259 79.454 31.2259C78.4983 31.2259 77.7055 31.0796 77.0422 30.7871C76.3788 30.4945 75.8334 30.0951 75.4005 29.5944C74.9733 29.088 74.6584 28.5029 74.4617 27.8221C74.2649 27.147 74.1637 26.4212 74.1637 25.6505V19.1411H76.6599H76.6542Z" fill="#262262"/>
<path d="M85.7281 19.1411H88.3199L91.8449 29.645L95.3867 19.1411H97.956L94.0768 31.0402H89.6017L85.7225 19.1411H85.7281Z" fill="#262262"/>
<path d="M109.751 31.0459H106.878C106.642 30.9221 106.462 30.7252 106.338 30.4608C106.215 30.1907 106.091 29.8982 105.967 29.5718C105.731 28.9867 105.512 28.5254 105.315 28.1822C105.118 27.839 104.927 27.5802 104.747 27.4058C104.567 27.2314 104.388 27.1189 104.219 27.0683C104.045 27.0176 103.859 26.9951 103.662 26.9951H101.537V31.0402H99.041V19.1411H104.596C105.281 19.1411 105.905 19.2086 106.468 19.3437C107.036 19.4787 107.513 19.6925 107.913 19.9794C108.312 20.2663 108.621 20.6377 108.846 21.099C109.071 21.5603 109.183 22.1173 109.183 22.7756C109.183 23.4338 109.116 23.6476 108.981 24.0527C108.846 24.4578 108.649 24.8178 108.396 25.1329C108.143 25.4479 107.828 25.7011 107.463 25.8868C107.097 26.0724 106.681 26.1737 106.226 26.185C106.586 26.2468 106.889 26.3706 107.137 26.5563C107.384 26.7419 107.603 26.9782 107.789 27.2539C107.974 27.5352 108.137 27.8503 108.272 28.1935C108.407 28.5423 108.553 28.908 108.7 29.2962C108.784 29.5212 108.908 29.8025 109.065 30.1345C109.222 30.4664 109.453 30.7702 109.762 31.029L109.751 31.0459ZM101.532 24.9416H104.011C104.393 24.9416 104.753 24.9135 105.085 24.8572C105.416 24.8009 105.697 24.6997 105.934 24.559C106.17 24.4184 106.355 24.2215 106.485 23.9739C106.614 23.7264 106.681 23.4001 106.681 23.0062C106.681 22.6124 106.619 22.3367 106.496 22.1117C106.372 21.8866 106.198 21.7122 105.973 21.5885C105.748 21.4647 105.473 21.3803 105.141 21.3353C104.809 21.2903 104.444 21.2678 104.033 21.2678H101.537V24.9416H101.532Z" fill="#262262"/>
<path d="M111.022 23.957L110.909 19.2199H112.866L112.736 23.957H111.022Z" fill="#262262"/>
<path d="M117.582 19.1411V25.6111C117.582 26.0724 117.627 26.5056 117.723 26.9051C117.819 27.3102 117.97 27.6646 118.178 27.9797C118.392 28.2891 118.673 28.5366 119.033 28.7167C119.393 28.8967 119.848 28.9867 120.393 28.9867C120.939 28.9867 121.388 28.8967 121.743 28.7167C122.097 28.5366 122.378 28.2891 122.592 27.9797C122.805 27.6702 122.951 27.3102 123.041 26.8995C123.126 26.4888 123.171 26.0612 123.171 25.6111V19.1411H125.633V25.6505C125.633 26.4212 125.538 27.147 125.346 27.8221C125.155 28.4973 124.846 29.088 124.424 29.5944C124.003 30.0951 123.463 30.4945 122.805 30.7871C122.147 31.0796 121.338 31.2259 120.382 31.2259C119.426 31.2259 118.634 31.0796 117.97 30.7871C117.307 30.4945 116.762 30.0951 116.329 29.5944C115.901 29.088 115.587 28.5029 115.39 27.8221C115.193 27.147 115.092 26.4212 115.092 25.6505V19.1411H117.588H117.582Z" fill="#262262"/>
<path d="M128.079 31.0459V19.1468H133.465C134.072 19.1468 134.668 19.2143 135.247 19.3493C135.826 19.4843 136.337 19.7094 136.782 20.0188C137.231 20.3282 137.591 20.7389 137.861 21.2509C138.136 21.7629 138.271 22.3874 138.271 23.1356C138.271 23.8839 138.148 24.5422 137.9 25.0766C137.653 25.6111 137.316 26.0443 136.883 26.3819C136.455 26.7194 135.955 26.9614 135.393 27.1189C134.825 27.2764 134.229 27.3496 133.594 27.3496H130.575V31.0403H128.079V31.0459ZM130.575 25.3186H133.391C133.689 25.3186 133.982 25.2904 134.268 25.2229C134.555 25.161 134.808 25.0541 135.033 24.8966C135.258 24.7391 135.432 24.5253 135.562 24.2552C135.691 23.9795 135.758 23.6364 135.758 23.2088C135.758 22.7812 135.691 22.4268 135.556 22.1736C135.421 21.9204 135.235 21.7235 134.999 21.5941C134.763 21.4647 134.505 21.3803 134.223 21.3409C133.942 21.3015 133.667 21.2847 133.391 21.2847H130.575V25.3129V25.3186Z" fill="#262262"/>
<path d="M31.4607 32.0338C31.0391 32.1069 30.415 32.3263 29.583 32.692C27.5928 33.5641 23.5056 35.3644 17.3326 38.0762C15.8428 38.7288 14.1281 38.5938 12.7619 37.7049L12.6607 37.6373C11.289 36.7428 10.4569 35.2181 10.4569 33.581C10.4569 31.0605 10.4569 28.0505 10.4569 24.5567C10.4569 21.063 10.4569 17.9574 10.4569 15.4144C10.4569 13.7885 11.2721 12.2694 12.6326 11.3749C13.9988 10.4747 15.7304 10.3284 17.2314 10.9867C23.4606 13.7266 27.5815 15.5382 29.5886 16.4215C30.4206 16.7872 31.0447 17.0066 31.4663 17.0797C33.7095 17.4623 35.9752 16.157 36.8297 14.0529C37.7517 11.7743 36.8466 9.08508 34.6821 7.89798C34.4066 7.7517 34.0862 7.59417 33.7095 7.42539C33.5015 7.33537 28.4529 5.01744 18.5526 0.477204C18.0354 0.24091 17.6643 0.100258 17.4394 0.0496234C16.1295 -0.214802 14.8308 0.606604 14.4092 1.82183C14.2911 2.1594 14.2349 2.81765 14.2349 3.80783C14.2349 3.97661 14.2349 4.80365 14.2349 6.28893C14.2349 7.77421 13.4197 9.43389 12.0592 10.3284L11.9524 10.4016C10.5862 11.3017 8.85465 11.448 7.35357 10.7898C4.68312 9.61393 3.21016 8.96693 2.92906 8.84878C2.73792 8.76439 2.47368 8.72501 2.13074 8.72501C1.25933 8.72501 0.449762 9.327 0.146174 10.0978C0.0506 10.3397 0 10.7898 0 11.4368V37.6824C0 38.335 0.056222 38.7794 0.146174 39.0214C0.449762 39.7921 1.26495 40.3941 2.13074 40.3997C2.47368 40.3997 2.73792 40.3604 2.92906 40.276C3.21016 40.1522 4.72248 39.4883 7.46039 38.29C8.95022 37.6373 10.6649 37.7724 12.0311 38.6613C13.4028 39.5558 14.2349 41.0861 14.2349 42.7233C14.2349 44.2817 14.2349 45.1481 14.2349 45.3225C14.2349 46.3127 14.2911 46.9766 14.4092 47.3085C14.8365 48.5238 16.1295 49.3396 17.4394 49.0751C17.6643 49.0301 18.0354 48.8895 18.5526 48.6475C28.4529 44.1129 33.5015 41.795 33.7095 41.6994C34.0862 41.5306 34.4123 41.3731 34.6821 41.2268C36.8466 40.0453 37.7573 37.3504 36.8297 35.0719C35.9752 32.9677 33.7039 31.6681 31.4663 32.045L31.4607 32.0338Z" fill="url(#paint0_linear_3_28)"/>
<defs>
<linearGradient id="paint0_linear_3_28" x1="18.592" y1="6.45208" x2="18.592" y2="21.198" gradientUnits="userSpaceOnUse">
<stop stop-color="#BF85FF"/>
<stop offset="1" stop-color="#6793FE"/>
</linearGradient>
</defs>
</svg>
