<svg width="404" height="129" viewBox="0 0 404 129" fill="none" xmlns="http://www.w3.org/2000/svg">
<path d="M27.99 111.9C23.13 111.9 18.42 111.21 13.86 109.83C9.36 108.45 5.79 106.62 3.15 104.34L7.2 95.25C9.78 97.29 12.93 98.97 16.65 100.29C20.43 101.55 24.21 102.18 27.99 102.18C32.67 102.18 36.15 101.43 38.43 99.93C40.77 98.43 41.94 96.45 41.94 93.99C41.94 92.19 41.28 90.72 39.96 89.58C38.7 88.38 37.08 87.45 35.1 86.79C33.12 86.13 30.42 85.38 27 84.54C22.2 83.4 18.3 82.26 15.3 81.12C12.36 79.98 9.81 78.21 7.65 75.81C5.55 73.35 4.5 70.05 4.5 65.91C4.5 62.43 5.43 59.28 7.29 56.46C9.21 53.58 12.06 51.3 15.84 49.62C19.68 47.94 24.36 47.1 29.88 47.1C33.72 47.1 37.5 47.58 41.22 48.54C44.94 49.5 48.15 50.88 50.85 52.68L47.16 61.77C44.4 60.15 41.52 58.92 38.52 58.08C35.52 57.24 32.61 56.82 29.79 56.82C25.17 56.82 21.72 57.6 19.44 59.16C17.22 60.72 16.11 62.79 16.11 65.37C16.11 67.17 16.74 68.64 18 69.78C19.32 70.92 20.97 71.82 22.95 72.48C24.93 73.14 27.63 73.89 31.05 74.73C35.73 75.81 39.57 76.95 42.57 78.15C45.57 79.29 48.12 81.06 50.22 83.46C52.38 85.86 53.46 89.1 53.46 93.18C53.46 96.66 52.5 99.81 50.58 102.63C48.72 105.45 45.87 107.7 42.03 109.38C38.19 111.06 33.51 111.9 27.99 111.9ZM87.6516 62.4C93.7116 62.4 98.5716 64.17 102.232 67.71C105.892 71.25 107.722 76.5 107.722 83.46V111H96.4716V84.9C96.4716 80.7 95.4816 77.55 93.5016 75.45C91.5216 73.29 88.7016 72.21 85.0416 72.21C80.9016 72.21 77.6316 73.47 75.2316 75.99C72.8316 78.45 71.6316 82.02 71.6316 86.7V111H60.3816V62.94H71.0916V69.15C72.9516 66.93 75.2916 65.25 78.1116 64.11C80.9316 62.97 84.1116 62.4 87.6516 62.4ZM165.812 62.94V111H155.102V104.79C153.242 107.07 150.932 108.78 148.172 109.92C145.472 111.06 142.472 111.63 139.172 111.63C134.492 111.63 130.292 110.61 126.572 108.57C122.912 106.53 120.032 103.65 117.932 99.93C115.892 96.21 114.872 91.89 114.872 86.97C114.872 82.05 115.892 77.76 117.932 74.1C120.032 70.38 122.912 67.5 126.572 65.46C130.292 63.42 134.492 62.4 139.172 62.4C142.292 62.4 145.142 62.94 147.722 64.02C150.362 65.1 152.642 66.69 154.562 68.79V62.94H165.812ZM140.432 102C144.572 102 147.992 100.62 150.692 97.86C153.392 95.1 154.742 91.47 154.742 86.97C154.742 82.47 153.392 78.84 150.692 76.08C147.992 73.32 144.572 71.94 140.432 71.94C136.292 71.94 132.872 73.32 130.172 76.08C127.532 78.84 126.212 82.47 126.212 86.97C126.212 91.47 127.532 95.1 130.172 97.86C132.872 100.62 136.292 102 140.432 102ZM203.572 62.4C208.252 62.4 212.422 63.42 216.082 65.46C219.802 67.5 222.712 70.38 224.812 74.1C226.912 77.82 227.962 82.11 227.962 86.97C227.962 91.83 226.912 96.15 224.812 99.93C222.712 103.65 219.802 106.53 216.082 108.57C212.422 110.61 208.252 111.63 203.572 111.63C197.092 111.63 191.962 109.47 188.182 105.15V128.46H176.932V62.94H187.642V69.24C189.502 66.96 191.782 65.25 194.482 64.11C197.242 62.97 200.272 62.4 203.572 62.4ZM202.312 102C206.452 102 209.842 100.62 212.482 97.86C215.182 95.1 216.532 91.47 216.532 86.97C216.532 82.47 215.182 78.84 212.482 76.08C209.842 73.32 206.452 71.94 202.312 71.94C199.612 71.94 197.182 72.57 195.022 73.83C192.862 75.03 191.152 76.77 189.892 79.05C188.632 81.33 188.002 83.97 188.002 86.97C188.002 89.97 188.632 92.61 189.892 94.89C191.152 97.17 192.862 98.94 195.022 100.2C197.182 101.4 199.612 102 202.312 102ZM291.019 108.39C289.699 109.47 288.079 110.28 286.159 110.82C284.299 111.36 282.319 111.63 280.219 111.63C274.939 111.63 270.859 110.25 267.979 107.49C265.099 104.73 263.659 100.71 263.659 95.43V52.32H274.909V63.3H287.779V72.3H274.909V95.16C274.909 97.5 275.479 99.3 276.619 100.56C277.819 101.76 279.469 102.36 281.569 102.36C284.089 102.36 286.189 101.7 287.869 100.38L291.019 108.39ZM317.996 102.09C323.216 102.09 327.566 100.35 331.046 96.87L336.986 103.8C334.886 106.38 332.186 108.33 328.886 109.65C325.586 110.97 321.866 111.63 317.726 111.63C312.446 111.63 307.796 110.58 303.776 108.48C299.756 106.38 296.636 103.47 294.416 99.75C292.256 95.97 291.176 91.71 291.176 86.97C291.176 82.29 292.226 78.09 294.326 74.37C296.486 70.59 299.426 67.65 303.146 65.55C306.926 63.45 311.186 62.4 315.926 62.4C320.426 62.4 324.506 63.39 328.166 65.37C331.886 67.29 334.826 70.08 336.986 73.74C339.146 77.34 340.226 81.57 340.226 86.43L303.416 93.63C304.556 96.39 306.386 98.49 308.906 99.93C311.426 101.37 314.456 102.09 317.996 102.09ZM315.926 71.4C311.786 71.4 308.426 72.75 305.846 75.45C303.326 78.15 302.066 81.78 302.066 86.34V86.43L329.246 81.21C328.466 78.27 326.876 75.9 324.476 74.1C322.136 72.3 319.286 71.4 315.926 71.4ZM363.274 111.63C358.294 111.63 354.394 110.28 351.574 107.58C348.814 104.82 347.434 100.95 347.434 95.97V44.22H358.684V95.16C358.684 99.96 360.934 102.36 365.434 102.36C366.934 102.36 368.284 102.06 369.484 101.46L370.024 110.46C367.924 111.24 365.674 111.63 363.274 111.63Z" fill="#2C1F1A"/>
<path d="M244.975 111.994C241.756 111.994 239.011 110.905 236.739 108.728C234.467 106.456 233.331 103.616 233.331 100.208C233.331 96.7053 234.419 93.8653 236.597 91.688C238.869 89.5107 241.661 88.422 244.975 88.422C248.288 88.422 251.033 89.5107 253.211 91.688C255.483 93.8653 256.619 96.7053 256.619 100.208C256.619 103.616 255.483 106.456 253.211 108.728C250.939 110.905 248.193 111.994 244.975 111.994Z" fill="#E67E22"/>
<path d="M392.459 7.13565C377.804 -6.02659 321.775 10.0138 309.561 25.4678C297.346 40.9218 352.584 17.7817 367.24 30.9439C381.895 44.1062 372.678 80.1214 384.893 64.6674C397.108 49.2134 407.115 20.2979 392.459 7.13565Z" fill="#E67E22"/>
</svg>
